<?xml version="1.0" encoding="UTF-8"?>
<svg width="32" height="32" viewBox="0 0 32 32" xmlns="http://www.w3.org/2000/svg">
  <!-- พื้นหลังวงกลม -->
  <circle cx="16" cy="16" r="15" fill="#2e78d2" />
  
  <!-- ตัว K ที่ใช้ path แทน text เพื่อความเข้ากันได้ที่ดีกว่า -->
  <path d="M13,10 L15,10 L15,15 L17,12 L19.5,12 L16.5,16 L20,22 L17.5,22 L15,17.5 L15,22 L13,22 Z" fill="white" />
  
  <!-- สัญลักษณ์บาท (฿) -->
  <path d="M22,10 L22,12 L21,12 L21,14 L20,14 L20,12 L19,12 L19,14 L20,14 L20,16 C20,17.1 20.9,18 22,18 L23,18 L23,20 L22,20 C20.3,20 19,18.7 19,17 L19,14 L18,14 L18,12 L19,12 L19,10 Z" fill="white" />
  
  <!-- เส้นด้านล่างแบบกราฟแนวโน้มขึ้น -->
  <polyline points="9,22 12,18 16,20 21,16" stroke="white" stroke-width="1.5" fill="none" />
  
  <!-- วงกลมขอบขาวเพื่อความสวยงาม -->
  <circle cx="16" cy="16" r="15" fill="none" stroke="white" stroke-width="1" />
</svg>